<svg width="1228" height="391" viewBox="0 0 1228 391" fill="none" xmlns="http://www.w3.org/2000/svg">
<g clip-path="url(#clip0_21_68)">
<g clip-path="url(#clip1_21_68)">
<path d="M847.457 151.797C850.859 148.281 854.762 145.605 859.164 143.762C863.57 141.918 868.219 141 873.125 141C879.195 141 884.621 142.172 889.387 144.516C894.148 146.855 898.258 150.375 901.715 155.066H930.809C924.789 142.059 917.059 132.371 907.613 126.012C898.164 119.648 886.781 116.465 873.457 116.465C865.152 116.465 857.395 117.957 850.176 120.941C842.953 123.93 836.398 128.328 830.488 134.133C824.246 140.383 819.512 147.32 816.281 154.941C813.043 162.559 811.426 170.613 811.426 179.098C811.426 187.469 812.77 195.324 815.445 202.668C818.117 210.008 822.047 216.551 827.23 222.301C833.359 229.227 840.285 234.445 848.004 237.961C855.723 241.477 864.152 243.234 873.289 243.234C886.445 243.234 897.758 240.109 907.23 233.855C916.707 227.609 924.285 218.258 929.973 205.809H900.793C897.844 210.047 893.98 213.285 889.219 215.52C884.449 217.754 879.09 218.871 873.125 218.871C862.758 218.871 853.996 215.086 846.832 207.523C839.668 199.961 836.094 190.598 836.094 179.43C836.094 174.352 837.078 169.398 839.059 164.57C841.035 159.742 843.836 155.484 847.457 151.797Z" fill="#3D454B"/>
<path d="M1029.33 207.145C1022.11 214.738 1013.18 218.531 1002.53 218.531C997.461 218.531 992.562 217.434 987.82 215.227C983.086 213.02 978.852 209.883 975.113 205.809C971.715 202.07 969.152 197.934 967.426 193.414C965.695 188.895 964.832 184.008 964.832 178.762C964.832 168.324 968.539 159.449 975.949 152.133C983.359 144.824 992.391 141.164 1003.04 141.164C1013.24 141.164 1021.97 144.836 1029.25 152.176C1036.52 159.52 1040.16 168.379 1040.16 178.762C1040.16 190.094 1036.55 199.555 1029.33 207.145ZM1046.34 134.633C1040.43 128.773 1033.73 124.281 1026.24 121.152C1018.74 118.031 1010.95 116.465 1002.87 116.465C992.113 116.465 982.195 118.852 973.113 123.621C964.027 128.398 956.473 135.168 950.453 143.93C946.945 149.121 944.293 154.688 942.512 160.633C940.727 166.578 939.836 172.898 939.836 179.598C939.836 188.137 941.301 196.164 944.227 203.668C947.156 211.18 951.461 217.949 957.145 223.977C963.051 230.34 969.82 235.141 977.453 238.379C985.094 241.613 993.453 243.234 1002.53 243.234C1011 243.234 1019.13 241.574 1026.91 238.25C1034.68 234.93 1041.5 230.172 1047.34 223.977C1053.14 218.062 1057.53 211.277 1060.51 203.629C1063.49 195.98 1064.99 187.805 1064.99 179.098C1064.99 170.723 1063.4 162.742 1060.22 155.152C1057.04 147.562 1052.41 140.719 1046.34 134.633Z" fill="#3D454B"/>
<path d="M1103.53 219.371V118.895H1079.94V240.805H1141.73V219.371H1103.53Z" fill="#3D454B"/>
<path d="M414.762 277.273C410.668 277.273 407.129 278.859 404.152 282.031C401.168 285.199 399.68 289.023 399.68 293.5C399.68 297.434 400.82 300.602 403.098 303.016C405.375 305.426 408.379 306.629 412.102 306.629C416.258 306.629 419.773 305.043 422.652 301.875C425.531 298.703 426.973 294.793 426.973 290.141C426.973 286.383 425.816 283.297 423.512 280.887C421.203 278.477 418.289 277.273 414.762 277.273ZM422.328 315.715L422.93 312.441C421.297 313.961 419.48 315.094 417.473 315.84C415.465 316.59 413.23 316.961 410.77 316.961C404.234 316.961 398.938 314.812 394.867 310.523C390.801 306.234 388.766 300.617 388.766 293.672C388.766 290.746 389.199 287.949 390.078 285.277C390.949 282.609 392.273 280.027 394.055 277.531C396.43 274.234 399.355 271.707 402.84 269.953C406.316 268.203 410.137 267.328 414.293 267.328C417.445 267.328 420.355 267.934 423.02 269.137C425.684 270.344 428.031 272.121 430.066 274.477L434.105 253.039H445.191L433.16 315.715H422.328Z" fill="#3D454B"/>
<path d="M456.668 286.828H482.367C481.566 283.859 480.062 281.555 477.855 279.91C475.648 278.266 472.93 277.445 469.688 277.445C466.738 277.445 464.109 278.273 461.805 279.93C459.496 281.59 457.785 283.887 456.668 286.828ZM491.309 300.859C489.188 306.043 486.047 310.02 481.895 312.793C477.742 315.574 472.84 316.961 467.199 316.961C460.551 316.961 455.094 314.812 450.824 310.523C446.555 306.234 444.422 300.762 444.422 294.105C444.422 290.113 445.223 286.336 446.828 282.762C448.43 279.188 450.707 276.066 453.656 273.398C455.922 271.359 458.484 269.809 461.352 268.75C464.219 267.688 467.281 267.156 470.551 267.156C477.285 267.156 482.781 269.277 487.047 273.516C491.32 277.754 493.457 283.223 493.457 289.918C493.457 290.75 493.414 291.68 493.328 292.699C493.242 293.719 493.098 294.848 492.898 296.082H455.508C456.195 299.543 457.57 302.164 459.633 303.953C461.699 305.738 464.375 306.629 467.668 306.629C470.02 306.629 472.145 306.152 474.051 305.199C475.953 304.246 477.668 302.797 479.188 300.859H491.309Z" fill="#3D454B"/>
<path d="M511.289 293.5C511.289 297.434 512.426 300.602 514.688 303.012C516.949 305.426 519.898 306.629 523.539 306.629C527.75 306.629 531.297 305.051 534.176 301.895C537.055 298.738 538.496 294.848 538.496 290.227C538.496 286.383 537.348 283.289 535.055 280.953C532.766 278.613 529.711 277.445 525.906 277.445C521.805 277.445 518.348 278.98 515.523 282.051C512.703 285.125 511.289 288.938 511.289 293.5ZM495.82 315.711L507.938 253.039H518.684L515.074 271.375C516.875 270.055 518.848 269.066 520.984 268.406C523.117 267.746 525.402 267.414 527.836 267.414C534.051 267.414 539.203 269.547 543.289 273.809C547.367 278.07 549.41 283.426 549.41 289.883C549.41 293.586 548.742 297.129 547.414 300.516C546.078 303.902 544.168 306.891 541.676 309.469C539.297 311.938 536.52 313.805 533.34 315.066C530.16 316.328 526.633 316.961 522.766 316.961C519.152 316.961 516.172 316.473 513.828 315.496C511.477 314.52 509.371 312.914 507.508 310.676L506.391 315.711H495.82Z" fill="#3D454B"/>
<path d="M562.992 263.371L565.012 253.039H575.93L573.906 263.371H562.992ZM552.852 315.715L562.004 268.363H572.918L563.766 315.715H552.852Z" fill="#3D454B"/>
<path d="M576.613 315.711L583.836 278.262H577.473L579.406 268.363H585.77L588.645 253.555H600.035L597.199 268.363H603.992L602.145 278.262H595.266L587.961 315.711H576.613Z" fill="#3D454B"/>
<path d="M655.477 277.273C651.293 277.273 647.793 278.852 644.988 282.008C642.18 285.164 640.777 289.137 640.777 293.93C640.777 297.633 641.934 300.676 644.238 303.059C646.543 305.441 649.5 306.629 653.109 306.629C657.324 306.629 660.883 305.051 663.793 301.895C666.703 298.738 668.156 294.848 668.156 290.227C668.156 286.324 666.996 283.191 664.672 280.824C662.352 278.457 659.285 277.273 655.477 277.273ZM629.859 294.102C629.859 289.996 630.66 286.148 632.27 282.547C633.871 278.945 636.18 275.809 639.188 273.141C641.477 271.105 644.059 269.562 646.926 268.516C649.789 267.465 652.871 266.941 656.164 266.941C662.867 266.941 668.359 269.082 672.645 273.355C676.93 277.633 679.066 283.113 679.066 289.801C679.066 293.559 678.402 297.125 677.07 300.496C675.738 303.867 673.824 306.859 671.336 309.469C668.984 311.879 666.215 313.73 663.02 315.023C659.824 316.312 656.363 316.961 652.641 316.961C645.992 316.961 640.535 314.812 636.266 310.523C631.996 306.234 629.859 300.762 629.859 294.102Z" fill="#3D454B"/>
<path d="M681.52 315.711L690.676 268.363H700.73L699.484 274.648C701.492 272.004 703.805 270.062 706.426 268.816C709.051 267.566 712.133 266.941 715.688 266.941H716.031L713.926 278.047C708.852 278.133 705.129 279.16 702.754 281.125C700.375 283.09 698.668 286.656 697.637 291.82L692.953 315.711H681.52Z" fill="#3D454B"/>
<path d="M743.578 277.273C739.48 277.273 735.945 278.859 732.961 282.031C729.98 285.199 728.496 289.023 728.496 293.5C728.496 297.434 729.629 300.602 731.91 303.016C734.188 305.426 737.191 306.629 740.914 306.629C745.066 306.629 748.586 305.043 751.465 301.875C754.34 298.703 755.781 294.793 755.781 290.141C755.781 286.383 754.629 283.297 752.32 280.887C750.016 278.477 747.102 277.273 743.578 277.273ZM751.145 315.715L751.742 312.441C750.113 313.961 748.289 315.094 746.289 315.84C744.281 316.59 742.043 316.961 739.578 316.961C733.051 316.961 727.75 314.812 723.68 310.523C719.613 306.234 717.578 300.617 717.578 293.672C717.578 290.746 718.016 287.949 718.887 285.277C719.762 282.609 721.086 280.027 722.863 277.531C725.238 274.234 728.168 271.707 731.648 269.953C735.133 268.203 738.949 267.328 743.105 267.328C746.258 267.328 749.164 267.934 751.828 269.137C754.496 270.344 756.848 272.121 758.875 274.477L762.914 253.039H774.008L761.973 315.715H751.145Z" fill="#3D454B"/>
<path d="M785.48 286.828H811.18C810.379 283.859 808.871 281.555 806.668 279.91C804.465 278.266 801.738 277.445 798.5 277.445C795.551 277.445 792.926 278.273 790.617 279.93C788.309 281.59 786.594 283.887 785.48 286.828ZM820.117 300.859C818 306.043 814.863 310.02 810.707 312.793C806.555 315.574 801.656 316.961 796.008 316.961C789.363 316.961 783.906 314.812 779.637 310.523C775.367 306.234 773.23 300.762 773.23 294.105C773.23 290.113 774.035 286.336 775.641 282.762C777.242 279.188 779.523 276.066 782.469 273.398C784.738 271.359 787.297 269.809 790.164 268.75C793.031 267.688 796.094 267.156 799.359 267.156C806.094 267.156 811.598 269.277 815.867 273.516C820.137 277.754 822.27 283.223 822.27 289.918C822.27 290.75 822.227 291.68 822.141 292.699C822.055 293.719 821.906 294.848 821.707 296.082H784.324C785.008 299.543 786.383 302.164 788.445 303.953C790.508 305.738 793.184 306.629 796.484 306.629C798.836 306.629 800.961 306.152 802.863 305.199C804.77 304.246 806.484 302.797 808.004 300.859H820.117Z" fill="#3D454B"/>
<path d="M825.145 315.711L834.301 268.363H844.355L843.113 274.648C845.117 272.004 847.434 270.062 850.051 268.816C852.68 267.566 855.762 266.941 859.312 266.941H859.66L857.551 278.047C852.484 278.133 848.754 279.16 846.383 281.125C844.004 283.09 842.297 286.656 841.262 291.82L836.578 315.711H825.145Z" fill="#3D454B"/>
<path d="M859.574 300.129H870.742V300.387C870.742 302.457 871.223 304.055 872.188 305.188C873.145 306.32 874.484 306.891 876.203 306.891C877.547 306.891 878.66 306.461 879.535 305.617C880.41 304.773 880.844 303.703 880.844 302.41C880.844 301.352 880.5 300.379 879.816 299.504C879.125 298.633 877.949 297.66 876.289 296.602C875.398 295.996 874.184 295.223 872.637 294.277C869.801 292.496 868.082 291.262 867.484 290.574C866.301 289.254 865.449 287.918 864.922 286.57C864.391 285.223 864.125 283.773 864.125 282.223C864.125 278.004 865.66 274.469 868.723 271.613C871.789 268.758 875.629 267.328 880.242 267.328C884.625 267.328 888.184 268.637 890.922 271.246C893.656 273.859 895.027 277.273 895.027 281.492V282.223L883.852 282.18C883.797 280.434 883.414 279.102 882.715 278.199C882.012 277.293 881.012 276.844 879.727 276.844C878.551 276.844 877.547 277.223 876.719 277.98C875.887 278.746 875.473 279.656 875.473 280.715C875.473 282.379 877.32 284.348 881.012 286.613C881.617 286.988 882.105 287.289 882.477 287.516C886.199 289.844 888.801 292.023 890.277 294.059C891.754 296.098 892.492 298.438 892.492 301.074C892.492 305.613 890.93 309.391 887.809 312.418C884.684 315.445 880.758 316.961 876.027 316.961C870.902 316.961 866.859 315.605 863.91 312.895C860.957 310.184 859.48 306.469 859.48 301.766C859.48 301.621 859.5 301.363 859.527 300.992C859.555 300.617 859.574 300.328 859.574 300.129Z" fill="#3D454B"/>
<path d="M133.391 137.418C162.508 80.168 226.652 52.57 286.359 67.348C297.406 68.543 308.52 71.023 319.457 74.914C316.371 73.066 313.223 71.277 309.969 69.609C237.828 32.805 151.438 57.852 116.996 125.547C84.344 189.762 110.191 269.262 174.5 308.688C121.426 270.215 102.711 197.719 133.391 137.418Z" fill="#455560"/>
<path d="M440.422 164.957C438.637 164.34 436.074 163.586 432.73 162.691C425.207 160.574 420.301 158.258 418.016 155.742C417.012 154.633 416.273 153.387 415.805 152.02C415.328 150.648 415.09 149.074 415.09 147.289C415.09 143.047 416.219 139.695 418.473 137.242C420.734 134.785 423.812 133.555 427.715 133.555C431.504 133.555 434.57 134.758 436.91 137.156C439.25 139.555 440.422 142.711 440.422 146.617V147.625H461.992C461.32 136.516 458.059 127.879 452.207 121.711C446.355 115.539 438.5 112.457 428.637 112.457C418.102 112.457 409.668 115.918 403.344 122.84C397.02 129.762 393.859 138.941 393.859 150.387C393.859 158.703 396.141 165.586 400.711 171.027C405.285 176.465 412.301 180.672 421.781 183.629C422.617 183.91 423.758 184.27 425.207 184.719C436.461 188.121 442.094 193.758 442.094 201.629C442.094 206.543 440.699 210.438 437.914 213.312C435.129 216.184 431.336 217.621 426.543 217.621C422.086 217.621 418.516 216.074 415.844 212.977C413.172 209.879 411.828 205.762 411.828 200.625V198.867L390.094 198.949C390.262 211.062 393.688 220.805 400.375 228.172C407.066 235.543 415.844 239.227 426.715 239.227C438.246 239.227 447.5 235.418 454.469 227.797C461.43 220.176 464.914 210.086 464.914 197.527C464.914 189.266 462.926 182.484 458.938 177.18C454.953 171.879 448.781 167.801 440.422 164.957Z" fill="#3D454B"/>
<path d="M470.434 136.32H493.34V236.797H517.082V136.32H539.988V114.883H470.434V136.32Z" fill="#3D454B"/>
<path d="M674.414 188.652L689.129 149.383L703.512 188.652H674.414ZM602.227 168.934C597.238 172.422 589.922 174.164 580.281 174.164H575.016V134.73H583.875C592.738 134.73 599.258 136.266 603.438 139.332C607.617 142.402 609.707 147.176 609.707 153.652C609.707 160.352 607.215 165.445 602.227 168.934ZM679.352 114.883L633.152 234.121L604.441 189.488C613.359 187.699 620.41 183.531 625.594 176.973C630.777 170.414 633.367 162.418 633.367 152.98C633.367 145.168 631.559 138.359 627.934 132.551C624.309 126.746 619.043 122.223 612.137 118.988C608.953 117.535 605.125 116.488 600.641 115.848C596.152 115.207 589.312 114.883 580.113 114.883H551.191V236.797H575.016V180.195L606.449 236.797H656.773L666.227 211.262H711.375L720.98 236.797H746.484L699.914 114.883H679.352Z" fill="#3D454B"/>
<path d="M735.695 136.32H758.598V236.797H782.344V136.32H805.246V114.883H735.695V136.32Z" fill="#3D454B"/>
<mask id="mask0_21_68" style="mask-type:luminance" maskUnits="userSpaceOnUse" x="808" y="112" width="120" height="128">
<path d="M847.2 116.9C840 119.9 833.4 124.3 827.5 130.1C821.2 136.4 816.5 143.3 813.3 150.9C810 158.6 808.4 166.6 808.4 175.1C808.4 183.5 809.8 191.3 812.4 198.7C815.1 206 819 212.5 824.2 218.3C830.4 225.2 837.3 230.4 845 233.9C852.7 237.5 861.1 239.2 870.3 239.2C883.4 239.2 894.8 236.1 904.2 229.8C913.7 223.6 921.3 214.2 927 201.8H897.8C894.8 206 891 209.3 886.2 211.5C881.4 213.7 876.1 214.9 870.1 214.9C859.8 214.9 851 211.1 843.8 203.5C836.7 196 833.1 186.6 833.1 175.4C833.1 170.3 834.1 165.4 836.1 160.6C838 155.7 840.8 151.5 844.5 147.8C847.9 144.3 851.8 141.6 856.2 139.8C860.6 137.9 865.2 137 870.1 137C876.2 137 881.6 138.2 886.4 140.5C891.1 142.8 895.3 146.4 898.7 151.1H927.8C921.8 138.1 914.1 128.4 904.6 122C895.2 115.6 883.8 112.5 870.5 112.5C862.1 112.5 854.4 113.9 847.2 116.9Z" fill="white"/>
</mask>
<g mask="url(#mask0_21_68)">
<path d="M-193.291 222.708L699.452 999.989L1421.29 168.292L528.548 -608.989L-193.291 222.708Z" fill="url(#paint0_linear_21_68)"/>
</g>
<mask id="mask1_21_68" style="mask-type:luminance" maskUnits="userSpaceOnUse" x="936" y="112" width="126" height="128">
<path d="M970.1 119.6C961 124.4 953.5 131.2 947.4 139.9C943.9 145.1 941.3 150.7 939.5 156.6C937.7 162.6 936.8 168.9 936.8 175.6C936.8 184.1 938.3 192.2 941.2 199.7C944.2 207.2 948.5 213.9 954.1 220C960 226.3 966.8 231.1 974.4 234.4C982.1 237.6 990.4 239.2 999.5 239.2C1008 239.2 1016.1 237.6 1023.9 234.2C1031.7 230.9 1038.5 226.2 1044.3 220C1050.1 214.1 1054.5 207.3 1057.5 199.6C1060.5 192 1062 183.8 1062 175.1C1062 166.7 1060.4 158.7 1057.2 151.1C1054 143.6 1049.4 136.7 1043.3 130.6C1037.4 124.8 1030.7 120.3 1023.2 117.1C1015.7 114 1007.9 112.5 999.9 112.5C989.1 112.5 979.2 114.8 970.1 119.6ZM984.8 211.2C980.1 209 975.8 205.9 972.1 201.8C968.7 198.1 966.1 193.9 964.4 189.4C962.7 184.9 961.8 180 961.8 174.8C961.8 164.3 965.5 155.4 972.9 148.1C980.4 140.8 989.4 137.2 1000 137.2C1010.2 137.2 1019 140.8 1026.2 148.2C1033.5 155.5 1037.2 164.4 1037.2 174.8C1037.2 186.1 1033.5 195.5 1026.3 203.1C1019.1 210.7 1010.2 214.5 999.5 214.5C994.5 214.5 989.6 213.4 984.8 211.2Z" fill="white"/>
</mask>
<g mask="url(#mask1_21_68)">
<path d="M-193.291 222.708L699.452 999.989L1421.29 168.292L528.548 -608.989L-193.291 222.708Z" fill="url(#paint1_linear_21_68)"/>
</g>
<mask id="mask2_21_68" style="mask-type:luminance" maskUnits="userSpaceOnUse" x="1076" y="114" width="63" height="123">
<path d="M1076.9 114.9V236.8H1138.7V215.4H1100.5V114.9H1076.9Z" fill="white"/>
</mask>
<g mask="url(#mask2_21_68)">
<path d="M-193.291 222.708L699.452 999.989L1421.29 168.292L528.548 -608.989L-193.291 222.708Z" fill="url(#paint2_linear_21_68)"/>
</g>
<mask id="mask3_21_68" style="mask-type:luminance" maskUnits="userSpaceOnUse" x="385" y="249" width="58" height="64">
<path d="M431.1 249L427.1 270.5C425 268.1 422.7 266.3 420 265.1C417.4 263.9 414.4 263.3 411.3 263.3C407.1 263.3 403.3 264.2 399.8 265.9C396.4 267.7 393.4 270.2 391.1 273.5C389.3 276 387.9 278.6 387.1 281.3C386.2 283.9 385.8 286.7 385.8 289.7C385.8 296.6 387.8 302.2 391.9 306.5C395.9 310.8 401.2 312.9 407.8 312.9C410.2 312.9 412.5 312.6 414.5 311.8C416.5 311.1 418.3 310 419.9 308.4L419.3 311.7H430.2L442.2 249H431.1ZM400.1 299C397.8 296.6 396.7 293.4 396.7 289.5C396.7 285 398.2 281.2 401.2 278C404.1 274.8 407.7 273.3 411.8 273.3C415.3 273.3 418.2 274.5 420.5 276.9C422.8 279.3 424 282.4 424 286.1C424 290.8 422.5 294.7 419.7 297.9C416.8 301 413.3 302.6 409.1 302.6C405.4 302.6 402.4 301.4 400.1 299Z" fill="white"/>
</mask>
<g mask="url(#mask3_21_68)">
<path d="M-193.291 222.708L699.452 999.989L1421.29 168.292L528.548 -608.989L-193.291 222.708Z" fill="url(#paint3_linear_21_68)"/>
</g>
<mask id="mask4_21_68" style="mask-type:luminance" maskUnits="userSpaceOnUse" x="441" y="263" width="50" height="50">
<path d="M458.4 264.7C455.5 265.8 452.9 267.4 450.7 269.4C447.7 272.1 445.4 275.2 443.8 278.8C442.2 282.3 441.4 286.1 441.4 290.1C441.4 296.8 443.6 302.2 447.8 306.5C452.1 310.8 457.6 312.9 464.2 312.9C469.8 312.9 474.7 311.6 478.9 308.8C483 306 486.2 302 488.3 296.9H476.2C474.7 298.8 473 300.2 471 301.2C469.1 302.1 467 302.6 464.7 302.6C461.4 302.6 458.7 301.7 456.6 299.9C454.6 298.2 453.2 295.5 452.5 292.1H489.9C490.1 290.8 490.2 289.7 490.3 288.7C490.4 287.7 490.5 286.7 490.5 285.9C490.5 279.2 488.3 273.7 484 269.5C479.8 265.3 474.3 263.1 467.5 263.1C464.3 263.1 461.2 263.7 458.4 264.7ZM458.8 275.9C461.1 274.3 463.7 273.4 466.7 273.4C469.9 273.4 472.6 274.3 474.9 275.9C477.1 277.5 478.6 279.9 479.4 282.8H453.7C454.8 279.9 456.5 277.6 458.8 275.9Z" fill="white"/>
</mask>
<g mask="url(#mask4_21_68)">
<path d="M-193.291 222.709L699.453 999.989L1421.29 168.291L528.547 -608.989L-193.291 222.709Z" fill="url(#paint4_linear_21_68)"/>
</g>
<mask id="mask5_21_68" style="mask-type:luminance" maskUnits="userSpaceOnUse" x="492" y="249" width="55" height="64">
<path d="M504.9 249L492.8 311.7H503.4L504.5 306.7C506.4 308.9 508.5 310.5 510.8 311.5C513.2 312.5 516.2 312.9 519.8 312.9C523.6 312.9 527.2 312.3 530.3 311.1C533.5 309.8 536.3 307.9 538.7 305.5C541.2 302.9 543.1 299.9 544.4 296.5C545.7 293.1 546.4 289.6 546.4 285.9C546.4 279.4 544.4 274.1 540.3 269.8C536.2 265.5 531.1 263.4 524.8 263.4C522.4 263.4 520.1 263.7 518 264.4C515.8 265.1 513.9 266 512.1 267.4L515.7 249H504.9ZM511.7 299C509.4 296.6 508.3 293.4 508.3 289.5C508.3 284.9 509.7 281.1 512.5 278C515.3 275 518.8 273.4 522.9 273.4C526.7 273.4 529.8 274.6 532.1 276.9C534.3 279.3 535.5 282.4 535.5 286.2C535.5 290.8 534.1 294.7 531.2 297.9C528.3 301 524.8 302.6 520.5 302.6C516.9 302.6 513.9 301.4 511.7 299Z" fill="white"/>
</mask>
<g mask="url(#mask5_21_68)">
<path d="M-193.291 222.708L699.451 999.989L1421.29 168.292L528.549 -608.989L-193.291 222.708Z" fill="url(#paint5_linear_21_68)"/>
</g>
<mask id="mask6_21_68" style="mask-type:luminance" maskUnits="userSpaceOnUse" x="549" y="249" width="24" height="63">
<path d="M562 249L560 259.4H570.9L572.9 249H562ZM559 264.4L549.8 311.7H560.8L569.9 264.4H559Z" fill="white"/>
</mask>
<g mask="url(#mask6_21_68)">
<path d="M-193.291 222.708L699.452 999.989L1421.29 168.292L528.548 -608.989L-193.291 222.708Z" fill="url(#paint6_linear_21_68)"/>
</g>
<mask id="mask7_21_68" style="mask-type:luminance" maskUnits="userSpaceOnUse" x="573" y="249" width="28" height="63">
<path d="M585.6 249.5L582.8 264.4H576.4L574.5 274.3H580.8L573.6 311.7H585L592.3 274.3H599.1L601 264.4H594.2L597 249.5H585.6Z" fill="white"/>
</mask>
<g mask="url(#mask7_21_68)">
<path d="M-193.291 222.708L699.452 999.989L1421.29 168.292L528.548 -608.989L-193.291 222.708Z" fill="url(#paint7_linear_21_68)"/>
</g>
<mask id="mask8_21_68" style="mask-type:luminance" maskUnits="userSpaceOnUse" x="626" y="262" width="51" height="51">
<path d="M643.9 264.5C641.1 265.6 638.5 267.1 636.2 269.1C633.2 271.8 630.9 274.9 629.3 278.5C627.7 282.1 626.9 286 626.9 290.1C626.9 296.8 629 302.2 633.3 306.5C637.5 310.8 643 312.9 649.6 312.9C653.4 312.9 656.8 312.3 660 311C663.2 309.7 666 307.9 668.3 305.5C670.8 302.8 672.7 299.9 674.1 296.5C675.4 293.1 676.1 289.5 676.1 285.8C676.1 279.1 673.9 273.6 669.6 269.3C665.4 265.1 659.9 262.9 653.2 262.9C649.9 262.9 646.8 263.5 643.9 264.5ZM641.2 299C638.9 296.7 637.8 293.6 637.8 289.9C637.8 285.1 639.2 281.2 642 278C644.8 274.8 648.3 273.3 652.5 273.3C656.3 273.3 659.3 274.4 661.7 276.8C664 279.2 665.2 282.3 665.2 286.2C665.2 290.8 663.7 294.7 660.8 297.9C657.9 301 654.3 302.6 650.1 302.6C646.5 302.6 643.5 301.4 641.2 299Z" fill="white"/>
</mask>
<g mask="url(#mask8_21_68)">
<path d="M-193.291 222.708L699.452 999.989L1421.29 168.292L528.548 -608.989L-193.291 222.708Z" fill="url(#paint8_linear_21_68)"/>
</g>
<mask id="mask9_21_68" style="mask-type:luminance" maskUnits="userSpaceOnUse" x="678" y="262" width="35" height="50">
<path d="M712.7 262.9C709.1 262.9 706 263.6 703.4 264.8C700.8 266.1 698.5 268 696.5 270.6L697.7 264.4H687.7L678.5 311.7H689.9L694.6 287.8C695.7 282.6 697.4 279.1 699.8 277.1C702.1 275.2 705.8 274.1 710.9 274L713 262.9H712.7Z" fill="white"/>
</mask>
<g mask="url(#mask9_21_68)">
<path d="M-193.291 222.709L699.454 999.989L1421.29 168.291L528.546 -608.989L-193.291 222.709Z" fill="url(#paint9_linear_21_68)"/>
</g>
<mask id="mask10_21_68" style="mask-type:luminance" maskUnits="userSpaceOnUse" x="714" y="249" width="57" height="64">
<path d="M759.9 249L755.9 270.5C753.8 268.1 751.5 266.3 748.8 265.1C746.2 263.9 743.3 263.3 740.1 263.3C735.9 263.3 732.1 264.2 728.6 265.9C725.2 267.7 722.2 270.2 719.9 273.5C718.1 276 716.8 278.6 715.9 281.3C715 283.9 714.6 286.7 714.6 289.7C714.6 296.6 716.6 302.2 720.7 306.5C724.8 310.8 730.1 312.9 736.6 312.9C739 312.9 741.3 312.6 743.3 311.8C745.3 311.1 747.1 310 748.7 308.4L748.1 311.7H759L771 249H759.9ZM728.9 299C726.6 296.6 725.5 293.4 725.5 289.5C725.5 285 727 281.2 730 278C732.9 274.8 736.5 273.3 740.6 273.3C744.1 273.3 747 274.5 749.3 276.9C751.6 279.3 752.8 282.4 752.8 286.1C752.8 290.8 751.3 294.7 748.5 297.9C745.6 301 742.1 302.6 737.9 302.6C734.2 302.6 731.2 301.4 728.9 299Z" fill="white"/>
</mask>
<g mask="url(#mask10_21_68)">
<path d="M-193.291 222.708L699.453 999.989L1421.29 168.292L528.548 -608.989L-193.291 222.708Z" fill="url(#paint10_linear_21_68)"/>
</g>
<mask id="mask11_21_68" style="mask-type:luminance" maskUnits="userSpaceOnUse" x="770" y="263" width="50" height="50">
<path d="M787.2 264.7C784.3 265.8 781.7 267.4 779.5 269.4C776.5 272.1 774.2 275.2 772.6 278.8C771 282.3 770.2 286.1 770.2 290.1C770.2 296.8 772.4 302.2 776.6 306.5C780.9 310.8 786.4 312.9 793 312.9C798.7 312.9 803.6 311.6 807.7 308.8C811.9 306 815 302 817.1 296.9H805C803.5 298.8 801.8 300.2 799.9 301.2C798 302.1 795.8 302.6 793.5 302.6C790.2 302.6 787.5 301.7 785.4 299.9C783.4 298.2 782 295.5 781.3 292.1H818.7C818.9 290.8 819.1 289.7 819.1 288.7C819.2 287.7 819.3 286.7 819.3 285.9C819.3 279.2 817.1 273.7 812.9 269.5C808.6 265.3 803.1 263.1 796.4 263.1C793.1 263.1 790 263.7 787.2 264.7ZM787.6 275.9C789.9 274.3 792.6 273.4 795.5 273.4C798.7 273.4 801.5 274.3 803.7 275.9C805.9 277.5 807.4 279.9 808.2 282.8H782.5C783.6 279.9 785.3 277.6 787.6 275.9Z" fill="white"/>
</mask>
<g mask="url(#mask11_21_68)">
<path d="M-193.291 222.708L699.452 999.989L1421.29 168.292L528.548 -608.989L-193.291 222.708Z" fill="url(#paint11_linear_21_68)"/>
</g>
<mask id="mask12_21_68" style="mask-type:luminance" maskUnits="userSpaceOnUse" x="822" y="262" width="35" height="50">
<path d="M856.3 262.9C852.8 262.9 849.7 263.6 847 264.8C844.4 266.1 842.1 268 840.1 270.6L841.4 264.4H831.3L822.1 311.7H833.6L838.3 287.8C839.3 282.6 841 279.1 843.4 277.1C845.8 275.2 849.5 274.1 854.5 274L856.7 262.9H856.3Z" fill="white"/>
</mask>
<g mask="url(#mask12_21_68)">
<path d="M-193.291 222.708L699.451 999.989L1421.29 168.292L528.549 -608.989L-193.291 222.708Z" fill="url(#paint12_linear_21_68)"/>
</g>
<mask id="mask13_21_68" style="mask-type:luminance" maskUnits="userSpaceOnUse" x="856" y="263" width="36" height="50">
<path d="M865.7 267.6C862.7 270.5 861.1 274 861.1 278.2C861.1 279.8 861.4 281.2 861.9 282.6C862.4 283.9 863.3 285.2 864.5 286.6C865.1 287.3 866.8 288.5 869.6 290.3C871.2 291.2 872.4 292 873.3 292.6C874.9 293.6 876.1 294.6 876.8 295.5C877.5 296.4 877.8 297.3 877.8 298.4C877.8 299.7 877.4 300.8 876.5 301.6C875.7 302.5 874.5 302.9 873.2 302.9C871.5 302.9 870.1 302.3 869.2 301.2C868.2 300 867.7 298.4 867.7 296.4V296.1H856.6C856.6 296.3 856.6 296.6 856.5 297C856.5 297.4 856.5 297.6 856.5 297.8C856.5 302.5 858 306.2 860.9 308.9C863.9 311.6 867.9 312.9 873 312.9C877.8 312.9 881.7 311.4 884.8 308.4C887.9 305.4 889.5 301.6 889.5 297.1C889.5 294.4 888.8 292.1 887.3 290.1C885.8 288 883.2 285.8 879.5 283.5C879.1 283.3 878.6 283 878 282.6C874.3 280.3 872.5 278.4 872.5 276.7C872.5 275.6 872.9 274.7 873.7 274C874.5 273.2 875.6 272.8 876.7 272.8C878 272.8 879 273.3 879.7 274.2C880.4 275.1 880.8 276.4 880.8 278.2H892V277.5C892 273.3 890.7 269.8 887.9 267.2C885.2 264.6 881.6 263.3 877.2 263.3C872.6 263.3 868.8 264.7 865.7 267.6Z" fill="white"/>
</mask>
<g mask="url(#mask13_21_68)">
<path d="M-193.291 222.708L699.452 999.989L1421.29 168.292L528.548 -608.989L-193.291 222.708Z" fill="url(#paint13_linear_21_68)"/>
</g>
<path d="M271.488 268.312C240.113 264.754 216.34 239.902 212.828 209.789C211.477 204.48 210.695 198.922 210.602 193.199C210.281 194.945 210 196.703 209.801 198.5C205.316 238.16 231.758 273.723 268.859 277.93C304.047 281.914 336.168 256.258 343.211 219.762C334.668 250.906 304.535 272.062 271.488 268.312Z" fill="#3D454B"/>
<path d="M137.652 173.648C145.496 124.016 181.785 86.09 226.957 74.238C234.477 71.703 242.359 69.977 250.543 69.207C283.406 66.125 314.441 78.785 337.5 101.508C349.352 112.312 358.992 125.402 365.82 139.992C348.125 84.734 294 47.223 233.938 52.863C164.551 59.367 113.57 120.992 120.062 190.492C123.848 230.918 146.254 265.086 177.98 285.332C147.402 258.688 130.793 217.059 137.652 173.648Z" fill="#3D454B"/>
<mask id="mask14_21_68" style="mask-type:luminance" maskUnits="userSpaceOnUse" x="99" y="48" width="218" height="257">
<path d="M114 121.5C81.3 185.8 107.2 265.3 171.5 304.7C118.4 266.2 99.7 193.7 130.4 133.4C159.5 76.2 223.6 48.6 283.4 63.3C294.4 64.5 305.5 67 316.5 70.9C313.4 69.1 310.2 67.3 307 65.6C284.4 54.1 260.5 48.6 237.1 48.6C185.9 48.6 137.7 75 114 121.5Z" fill="white"/>
</mask>
<g mask="url(#mask14_21_68)">
<path d="M-109.149 33.4231L104.971 734.889L1337.15 357.577L1123.03 -343.889L-109.149 33.4231Z" fill="url(#paint14_linear_21_68)"/>
</g>
<mask id="mask15_21_68" style="mask-type:luminance" maskUnits="userSpaceOnUse" x="183" y="160" width="164" height="132">
<path d="M190.7 166.3C171 213.3 190.7 266.3 234.6 284.8C276.3 302.3 324.9 282.4 346.6 240.2C324.9 275.3 280.4 290.4 241.3 274C204.1 258.3 183.9 219.4 190.4 181.2C190.6 174.2 191.6 167.1 193.6 160.1C192.5 162.1 191.6 164.1 190.7 166.3Z" fill="white"/>
</mask>
<g mask="url(#mask15_21_68)">
<path d="M657.932 1004.4L1422.69 181.512L570.068 -613.398L-194.69 209.488L657.932 1004.4Z" fill="url(#paint15_linear_21_68)"/>
</g>
<mask id="mask16_21_68" style="mask-type:luminance" maskUnits="userSpaceOnUse" x="195" y="164" width="156" height="122">
<path d="M201.6 170.3C184.4 215.1 204.4 264.6 246.3 280.8C286.1 296.2 331.3 276 350.6 235.7C331.2 269.4 289.7 284.8 252.3 270.4C216.8 256.7 196.7 220.5 201.7 184.4C201.8 177.8 202.5 171 204.2 164.3C203.3 166.3 202.4 168.2 201.6 170.3Z" fill="white"/>
</mask>
<g mask="url(#mask16_21_68)">
<path d="M127.879 766.671L1347.24 350.283L1100.12 -375.671L-119.237 40.7171L127.879 766.671Z" fill="url(#paint16_linear_21_68)"/>
</g>
<path d="M104.223 187.223C105.742 119.109 154.352 63.191 218.188 49.801C229.289 45.863 241.047 43.117 253.289 41.801C249.484 41.449 245.656 41.184 241.773 41.094C155.953 39.172 84.922 102.895 83.113 183.438C81.414 259.828 142.613 323.859 222.16 331.906C153.781 319.598 102.613 258.965 104.223 187.223Z" fill="#3D454B"/>
<mask id="mask17_21_68" style="mask-type:luminance" maskUnits="userSpaceOnUse" x="82" y="38" width="171" height="291">
<path d="M82.1 180.4C80.4 256.8 141.6 320.9 221.2 328.9C152.8 316.6 101.6 256 103.2 184.2C104.7 116.1 153.4 60.2 217.2 46.8C228.3 42.9 240 40.1 252.3 38.8C248.5 38.4 244.7 38.2 240.8 38.1C239.5 38.1 238.2 38 237 38C152.9 38 83.9 101.1 82.1 180.4Z" fill="white"/>
</mask>
<g mask="url(#mask17_21_68)">
<path d="M-132.925 338.662L1063.62 809.797L1360.92 52.3386L164.378 -418.797L-132.925 338.662Z" fill="url(#paint17_linear_21_68)"/>
</g>
</g>
</g>
<defs>
<linearGradient id="paint0_linear_21_68" x1="823.366" y1="134.501" x2="918.171" y2="216.783" gradientUnits="userSpaceOnUse">
<stop stop-color="#FCE92F"/>
<stop offset="0.517857" stop-color="#BD844C"/>
<stop offset="0.735714" stop-color="#BE864D"/>
<stop offset="0.886905" stop-color="#F4E781"/>
<stop offset="1" stop-color="#F4E781"/>
</linearGradient>
<linearGradient id="paint1_linear_21_68" x1="951.583" y1="134.454" x2="1046.94" y2="217.211" gradientUnits="userSpaceOnUse">
<stop stop-color="#FCE92F"/>
<stop offset="0.517857" stop-color="#BD844C"/>
<stop offset="0.735714" stop-color="#BE864D"/>
<stop offset="0.886905" stop-color="#F4E781"/>
<stop offset="1" stop-color="#F4E781"/>
</linearGradient>
<linearGradient id="paint2_linear_21_68" x1="1051.91" y1="143.804" x2="1147.5" y2="226.768" gradientUnits="userSpaceOnUse">
<stop stop-color="#FCE92F"/>
<stop offset="0.517857" stop-color="#BD844C"/>
<stop offset="0.735714" stop-color="#BE864D"/>
<stop offset="0.886905" stop-color="#F4E781"/>
<stop offset="1" stop-color="#F4E781"/>
</linearGradient>
<linearGradient id="paint3_linear_21_68" x1="400.063" y1="262.992" x2="441.351" y2="298.826" gradientUnits="userSpaceOnUse">
<stop stop-color="#FCE92F"/>
<stop offset="0.517857" stop-color="#BD844C"/>
<stop offset="0.735714" stop-color="#BE864D"/>
<stop offset="0.886905" stop-color="#F4E781"/>
<stop offset="1" stop-color="#F4E781"/>
</linearGradient>
<linearGradient id="paint4_linear_21_68" x1="447.847" y1="272.294" x2="484.248" y2="303.887" gradientUnits="userSpaceOnUse">
<stop stop-color="#FCE92F"/>
<stop offset="0.517857" stop-color="#BD844C"/>
<stop offset="0.735714" stop-color="#BE864D"/>
<stop offset="0.886905" stop-color="#F4E781"/>
<stop offset="1" stop-color="#F4E781"/>
</linearGradient>
<linearGradient id="paint5_linear_21_68" x1="489.377" y1="267.001" x2="536.582" y2="307.971" gradientUnits="userSpaceOnUse">
<stop stop-color="#FCE92F"/>
<stop offset="0.517857" stop-color="#BD844C"/>
<stop offset="0.735714" stop-color="#BE864D"/>
<stop offset="0.886905" stop-color="#F4E781"/>
<stop offset="1" stop-color="#F4E781"/>
</linearGradient>
<linearGradient id="paint6_linear_21_68" x1="546.261" y1="267.181" x2="576.575" y2="293.49" gradientUnits="userSpaceOnUse">
<stop stop-color="#FCE92F"/>
<stop offset="0.517857" stop-color="#BD844C"/>
<stop offset="0.735714" stop-color="#BE864D"/>
<stop offset="0.886905" stop-color="#F4E781"/>
<stop offset="1" stop-color="#F4E781"/>
</linearGradient>
<linearGradient id="paint7_linear_21_68" x1="570.122" y1="267.396" x2="600.501" y2="293.762" gradientUnits="userSpaceOnUse">
<stop stop-color="#FCE92F"/>
<stop offset="0.517857" stop-color="#BD844C"/>
<stop offset="0.735714" stop-color="#BE864D"/>
<stop offset="0.886905" stop-color="#F4E781"/>
<stop offset="1" stop-color="#F4E781"/>
</linearGradient>
<linearGradient id="paint8_linear_21_68" x1="633.261" y1="272.111" x2="669.79" y2="303.814" gradientUnits="userSpaceOnUse">
<stop stop-color="#FCE92F"/>
<stop offset="0.517857" stop-color="#BD844C"/>
<stop offset="0.735714" stop-color="#BE864D"/>
<stop offset="0.886905" stop-color="#F4E781"/>
<stop offset="1" stop-color="#F4E781"/>
</linearGradient>
<linearGradient id="paint9_linear_21_68" x1="679.795" y1="273.426" x2="704.533" y2="294.897" gradientUnits="userSpaceOnUse">
<stop stop-color="#FCE92F"/>
<stop offset="0.517857" stop-color="#BD844C"/>
<stop offset="0.735714" stop-color="#BE864D"/>
<stop offset="0.886905" stop-color="#F4E781"/>
<stop offset="1" stop-color="#F4E781"/>
</linearGradient>
<linearGradient id="paint10_linear_21_68" x1="728.799" y1="263.027" x2="770.09" y2="298.864" gradientUnits="userSpaceOnUse">
<stop stop-color="#FCE92F"/>
<stop offset="0.517857" stop-color="#BD844C"/>
<stop offset="0.735714" stop-color="#BE864D"/>
<stop offset="0.886905" stop-color="#F4E781"/>
<stop offset="1" stop-color="#F4E781"/>
</linearGradient>
<linearGradient id="paint11_linear_21_68" x1="776.645" y1="272.302" x2="813.047" y2="303.896" gradientUnits="userSpaceOnUse">
<stop stop-color="#FCE92F"/>
<stop offset="0.517857" stop-color="#BD844C"/>
<stop offset="0.735714" stop-color="#BE864D"/>
<stop offset="0.886905" stop-color="#F4E781"/>
<stop offset="1" stop-color="#F4E781"/>
</linearGradient>
<linearGradient id="paint12_linear_21_68" x1="823.429" y1="273.414" x2="848.165" y2="294.883" gradientUnits="userSpaceOnUse">
<stop stop-color="#FCE92F"/>
<stop offset="0.517857" stop-color="#BD844C"/>
<stop offset="0.735714" stop-color="#BE864D"/>
<stop offset="0.886905" stop-color="#F4E781"/>
<stop offset="1" stop-color="#F4E781"/>
</linearGradient>
<linearGradient id="paint13_linear_21_68" x1="859.33" y1="274.886" x2="890.516" y2="301.953" gradientUnits="userSpaceOnUse">
<stop stop-color="#FCE92F"/>
<stop offset="0.517857" stop-color="#BD844C"/>
<stop offset="0.735714" stop-color="#BE864D"/>
<stop offset="0.886905" stop-color="#F4E781"/>
<stop offset="1" stop-color="#F4E781"/>
</linearGradient>
<linearGradient id="paint14_linear_21_68" x1="184.283" y1="57.9188" x2="252.232" y2="279.818" gradientUnits="userSpaceOnUse">
<stop stop-color="#FCE92F"/>
<stop offset="0.517857" stop-color="#BD844C"/>
<stop offset="0.735714" stop-color="#BE864D"/>
<stop offset="0.886905" stop-color="#F4E781"/>
<stop offset="1" stop-color="#F4E781"/>
</linearGradient>
<linearGradient id="paint15_linear_21_68" x1="209.442" y1="268.152" x2="287.146" y2="184.807" gradientUnits="userSpaceOnUse">
<stop stop-color="#FCE92F"/>
<stop offset="0.517857" stop-color="#BD844C"/>
<stop offset="0.735714" stop-color="#BE864D"/>
<stop offset="0.886905" stop-color="#F4E781"/>
<stop offset="1" stop-color="#F4E781"/>
</linearGradient>
<linearGradient id="paint16_linear_21_68" x1="202.859" y1="239.962" x2="336.497" y2="194.472" gradientUnits="userSpaceOnUse">
<stop stop-color="#FCE92F"/>
<stop offset="0.413095" stop-color="#BD844C"/>
<stop offset="0.629762" stop-color="#BE864D"/>
<stop offset="0.888095" stop-color="#F4E781"/>
<stop offset="1" stop-color="#F4E781"/>
</linearGradient>
<linearGradient id="paint17_linear_21_68" x1="92.5926" y1="130.398" x2="271.435" y2="200.593" gradientUnits="userSpaceOnUse">
<stop stop-color="#FCE92F"/>
<stop offset="0.517857" stop-color="#BD844C"/>
<stop offset="0.735714" stop-color="#BE864D"/>
<stop offset="0.886905" stop-color="#F4E781"/>
<stop offset="1" stop-color="#F4E781"/>
</linearGradient>
<clipPath id="clip0_21_68">
<rect width="1228" height="391" fill="white"/>
</clipPath>
<clipPath id="clip1_21_68">
<rect width="1228" height="391" fill="white"/>
</clipPath>
</defs>
</svg>
